Coordinates
version=1
nRows=5
nColumns=40
inDegrees=yes

Units are S.I. units (second, meters, Newtons, ...)
If the header above contains a line with 'inDegrees', this indicates whether rotational values are in degrees (yes) or radians (no).

endheader
time	pelvis_tilt	pelvis_list	pelvis_rotation	pelvis_tx	pelvis_ty	pelvis_tz	hip_flexion_r	hip_adduction_r	hip_rotation_r	knee_angle_r	knee_angle_r_beta	ankle_angle_r	subtalar_angle_r	mtp_angle_r	hip_flexion_l	hip_adduction_l	hip_rotation_l	knee_angle_l	knee_angle_l_beta	ankle_angle_l	subtalar_angle_l	mtp_angle_l	lumbar_extension	lumbar_bending	lumbar_rotation	arm_flex_r	arm_add_r	arm_rot_r	elbow_flex_r	pro_sup_r	wrist_flex_r	wrist_dev_r	arm_flex_l	arm_add_l	arm_rot_l	elbow_flex_l	pro_sup_l	wrist_flex_l	wrist_dev_l
      4.00000000	    -25.87399453	      3.78377819	      5.55910841	     -0.47170119	      0.71738900	     -0.74191996	     82.77558603	     -4.94075799	     -4.25256631	     87.81975883	      1.53274394	     19.46989103	      0.00000000	      0.00000000	     92.09160335	     -5.66454880	    -14.23410414	     54.38105886	      0.94912853	    -11.09744350	      0.00000000	      0.00000000	     -5.36495161	      0.32174068	     -7.90356507	     89.96749165	     -0.20628109	     13.47011386	     52.98745233	     73.36767044	      0.00000000	      0.00000000	     89.95541057	     -8.37079836	      9.14412324	     48.52865220	     78.91590357	      0.00000000	      0.00000000
      4.00500000	    -26.03078060	      3.82658977	      5.66936701	     -0.47195646	      0.71672231	     -0.74213084	     83.01898256	     -4.88789167	     -3.94873359	     87.91695480	      1.53444033	     19.56978817	      0.00000000	      0.00000000	     92.29539701	     -5.49476449	    -14.21546499	     54.23024004	      0.94649624	    -11.82872554	      0.00000000	      0.00000000	     -5.27049574	      0.23962424	     -7.90476560	     89.96750895	     -0.42776583	     13.55609484	     53.23020314	     72.03122808	      0.00000000	      0.00000000	     89.95537773	     -8.37440325	      9.67686163	     48.83780952	     77.35972067	      0.00000000	      0.00000000
      4.01000000	    -26.01831725	      3.79728568	      5.68456584	     -0.47199217	      0.71613628	     -0.74212837	     83.04852133	     -4.88759485	     -3.98620833	     87.96708323	      1.53531524	     19.60963576	      0.00000000	      0.00000000	     92.36634538	     -5.45507545	    -14.16904398	     54.27060959	      0.94720082	    -11.81919034	      0.00000000	      0.00000000	     -5.27335277	      0.27890124	     -8.01880960	     89.96764540	     -0.29080891	     12.97874497	     52.99563678	     77.57858373	      0.00000000	      0.00000000	     89.95534948	     -8.48405600	      9.25941198	     48.77375244	     82.11706193	      0.00000000	      0.00000000
      4.01500000	    -26.07074607	      3.79909578	      5.62821796	     -0.47208926	      0.71549889	     -0.74207210	     83.20747922	     -4.77879558	     -3.91136825	     88.07277774	      1.53715995	     19.53072115	      0.00000000	      0.00000000	     92.49917704	     -5.49866064	    -14.15180194	     54.33268321	      0.94828421	    -11.87579288	      0.00000000	      0.00000000	     -5.24246014	      0.24546530	     -7.96987934	     89.96762729	     -0.32905513	     13.29135232	     53.10969432	     74.06172290	      0.00000000	      0.00000000	     89.95542831	     -8.41506096	      9.58861846	     48.89388608	     77.86653731	      0.00000000	      0.00000000
      4.02000000	    -26.11105673	      3.82323375	      5.61916376	     -0.47207722	      0.71495810	     -0.74207228	     83.29037589	     -4.72354978	     -3.81247768	     88.16766040	      1.53881597	     19.69360430	      0.00000000	      0.00000000	     92.57728080	     -5.47287987	    -14.15639885	     54.35197161	      0.94862086	    -11.65239469	      0.00000000	      0.00000000	     -5.22969879	      0.19990920	     -7.92387067	     89.96767969	     -0.35339131	     12.91031156	     52.94194576	     75.74095980	      0.00000000	      0.00000000	     89.95563959	     -8.33793625	      9.26797209	     48.83910710	     81.52507314	      0.00000000	      0.00000000
